# xmcd
#
# Track frame offsets:
#	150
#	19948
#	36478
#	55085
#	74028
#	95527
#	116103
#	144303
#	170920
#	187650
#	208362
#	227213
#	281119
#	298670
#	315727
#
# Disc length: 4443 seconds
#
# Revision: 0
# Processed by: cddbd v1.5.2PL0 Copyright (c) Steve Scherf et al.
# Submitted via: EZCDAudioConverter 1.0.4.1
#
DISCID=f311590f
DTITLE=Curtis Grimes - Live At The Parish
DYEAR=2012
DGENRE=Country
TTITLE0=Rain
TTITLE1=Memories
TTITLE2=A Girl Like You
TTITLE3=My Love Is That Way
TTITLE4=Home To Me
TTITLE5=Lonely River
TTITLE6=My Best
TTITLE7=How 'Bout Tonight
TTITLE8=Rock And A Heartache
TTITLE9=Devil's Heart
TTITLE10=Irresponsible
TTITLE11=Whiskey Drunk
TTITLE12=Doin' My Time
TTITLE13=Smile
TTITLE14=Love Is To Blame
EXTD=
EXTT0=
EXTT1=
EXTT2=
EXTT3=
EXTT4=
EXTT5=
EXTT6=
EXTT7=
EXTT8=
EXTT9=
EXTT10=
EXTT11=
EXTT12=
EXTT13=
EXTT14=
PLAYORDER=
